<svg width="40" height="41" viewBox="0 0 40 41" fill="none" xmlns="http://www.w3.org/2000/svg">
<rect width="40" height="41" rx="4" fill="#DCB7E2"/>
<rect x="11" y="15" width="8" height="14" fill="#81279D"/>
<rect x="15" y="11" width="10" height="14" fill="#81279D"/>
<rect x="21" y="19" width="8" height="10" fill="#81279D"/>
<rect x="21" y="13" width="2" height="2" fill="#DCB7E2"/>
<rect x="17" y="13" width="2" height="2" fill="#DCB7E2"/>
<rect x="25" y="25" width="2" height="2" fill="#DCB7E2"/>
<rect x="25" y="21" width="2" height="2" fill="#DCB7E2"/>
<rect x="21" y="21" width="2" height="2" fill="#DCB7E2"/>
<rect x="21" y="17" width="2" height="2" fill="#DCB7E2"/>
<rect x="17" y="21" width="2" height="2" fill="#DCB7E2"/>
<rect x="17" y="17" width="2" height="2" fill="#DCB7E2"/>
<rect x="13" y="25" width="2" height="2" fill="#DCB7E2"/>
<rect x="13" y="21" width="2" height="2" fill="#DCB7E2"/>
<rect x="13" y="17" width="2" height="2" fill="#DCB7E2"/>
</svg>
